<?xml version="1.0" encoding="UTF-8"?>
<svg version="1.1" xmlns="http://www.w3.org/2000/svg" width="48" height="48">
<path d="M0 0 C1.80859375 0.80859375 1.80859375 0.80859375 2.80859375 2.80859375 C2.42775404 4.17326938 2.00449632 5.52627058 1.55859375 6.87109375 C0.6331704 10.80097373 0.87411795 13.00214215 2.68359375 16.62109375 C5.55743412 21.03228421 8.59864727 23.68967907 13.80859375 24.80859375 C16.77000779 24.74456318 19.56616622 24.45289243 22.48828125 23.97265625 C23.25398438 23.91851563 24.0196875 23.864375 24.80859375 23.80859375 C25.46859375 24.46859375 26.12859375 25.12859375 26.80859375 25.80859375 C26.62526207 28.84595374 26.13818361 30.41607504 24.171875 32.7578125 C18.29389313 37.7401019 13.80853517 40.26952979 5.83984375 40.0703125 C2.41816515 39.62944237 -0.14626384 38.4243836 -3.19140625 36.80859375 C-3.52140625 36.14859375 -3.85140625 35.48859375 -4.19140625 34.80859375 C-5.33609375 34.28265625 -5.33609375 34.28265625 -6.50390625 33.74609375 C-10.87905418 30.59191733 -12.6562752 25.98370464 -13.54296875 20.72265625 C-13.80861677 14.6127517 -12.38149586 9.30092503 -8.3515625 4.71484375 C-3.04466329 -0.26593316 -3.04466329 -0.26593316 0 0 Z " fill="#E9E7FE" transform="translate(17.19140625,4.19140625)"/>
<path d="M0 0 C3 1 3 1 3.88671875 2.70703125 C4.15097656 3.40183594 4.41523438 4.09664062 4.6875 4.8125 C6.61678487 8.84514055 8.5458448 10.68519802 12.63671875 12.46484375 C16.41226679 13.31980256 19.89335125 12.78632946 23.6796875 12.1640625 C24.44539063 12.10992187 25.21109375 12.05578125 26 12 C26.66 12.66 27.32 13.32 28 14 C27.81666832 17.03735999 27.32958986 18.60748129 25.36328125 20.94921875 C19.47848866 25.93728104 15.00632137 28.43847695 7.03515625 28.26953125 C3.67631709 27.82469459 1.01865753 26.50932877 -2 25 C-2 24.34 -2 23.68 -2 23 C-1.01 22.67 -0.02 22.34 1 22 C1.66 22.33 2.32 22.66 3 23 C8.8816635 23.6247594 14.29491958 24.10184491 19.25 20.5 C20.1575 19.675 21.065 18.85 22 18 C21.14277344 17.92523438 20.28554688 17.85046875 19.40234375 17.7734375 C12.92657641 17.02876076 7.97936616 16.41614459 3.3046875 11.6484375 C1.36700463 9.2002274 0.02670863 6.95178731 -1 4 C-0.6875 1.625 -0.6875 1.625 0 0 Z " fill="#8554FE" transform="translate(16,16)"/>
<path d="M0 0 C1.80859375 0.80859375 1.80859375 0.80859375 2.80859375 2.80859375 C2.20098893 5.15799905 1.53729847 7.49388463 0.80859375 9.80859375 C-0.18140625 9.47859375 -1.17140625 9.14859375 -2.19140625 8.80859375 C-2.52140625 7.81859375 -2.85140625 6.82859375 -3.19140625 5.80859375 C-7.6447825 11.26757109 -8.5196917 13.98132827 -8.4921875 20.9765625 C-8.05496748 25.09324446 -6.46759284 27.39431387 -4.19140625 30.80859375 C-4.19140625 31.79859375 -4.19140625 32.78859375 -4.19140625 33.80859375 C-5.94140625 33.74609375 -5.94140625 33.74609375 -8.19140625 32.80859375 C-12.28719322 27.25716123 -13.83377631 21.70171868 -13.19140625 14.80859375 C-12.00653399 8.57616568 -8.91026738 5.08512465 -4.2265625 0.9609375 C-2.19140625 -0.19140625 -2.19140625 -0.19140625 0 0 Z " fill="#8553FE" transform="translate(17.19140625,4.19140625)"/>
<path d="M0 0 C2.44305352 4.27534367 2 8.19622154 2 13 C-0.31 11.35 -2.62 9.7 -5 8 C-3.8141763 4.62496331 -2.72426311 2.35277269 0 0 Z " fill="#C6C2FF" transform="translate(14,9)"/>
<path d="M0 0 C3.96 0.33 7.92 0.66 12 1 C7.375 5.875 7.375 5.875 4 7 C0 2.25 0 2.25 0 0 Z " fill="#C8C3FE" transform="translate(27,32)"/>
<path d="M0 0 C2.64 0 5.28 0 8 0 C6.68 1.32 5.36 2.64 4 4 C2.68 2.68 1.36 1.36 0 0 Z " fill="#A9A2FE" transform="translate(31,33)"/>
<path d="M0 0 C1.4606285 2.64738916 2 3.89448334 2 7 C0 6 -2 5 -4 4 C-2.68 2.68 -1.36 1.36 0 0 Z " fill="#A7A0FE" transform="translate(14,9)"/>
</svg>
