<?xml version="1.0" encoding="UTF-8"?>
<svg version="1.1" xmlns="http://www.w3.org/2000/svg" width="78" height="78">
<path d="M0 0 C3.27593689 2.5452745 5.32676302 4.93301158 6.15625 8.98828125 C6.29617873 13.70213031 5.8558839 17.62940702 2.90625 21.42578125 C-0.4146601 24.52026566 -2.37273805 25.91493025 -6.94921875 26.05078125 C-12.83256183 25.73542618 -15.83183236 24.29375384 -19.84375 19.98828125 C-22.28732377 16.16355708 -22.0671983 12.56923986 -21.44921875 8.20703125 C-20.21983073 3.70191903 -17.51674716 1.05714055 -13.59375 -1.44921875 C-8.91871806 -2.40547528 -4.26301752 -2.33924055 0 0 Z " fill="#85F1E7" transform="translate(46.84375,27.01171875)"/>
<path d="M0 0 C0 8.58 0 17.16 0 26 C-1.32 26.33 -2.64 26.66 -4 27 C-8.06265719 24.23739311 -10.98187813 21.97748472 -12 17 C-12.13992873 12.28615094 -11.6996339 8.35887423 -8.75 4.5625 C-6.1893991 2.17648553 -3.69506985 0 0 0 Z " fill="#B1F5EF" transform="translate(37,25)"/>
<path d="M0 0 C6.08108108 4.86486486 6.08108108 4.86486486 7 9 C7.15405981 13.89366456 6.65449437 17.70395907 3.5 21.5625 C1 24 1 24 0 24 C0 16.08 0 8.16 0 0 Z " fill="#57ECDC" transform="translate(46,27)"/>
<path d="M0 0 C0 8.58 0 17.16 0 26 C-1.32 26.33 -2.64 26.66 -4 27 C-5.27491216 24.45017567 -5.02596616 22.83534576 -4.87890625 19.9921875 C-4.83056641 19.00605469 -4.78222656 18.01992188 -4.73242188 17.00390625 C-4.67634766 15.97136719 -4.62027344 14.93882813 -4.5625 13.875 C-4.51029297 12.83472656 -4.45808594 11.79445313 -4.40429688 10.72265625 C-4.27439054 8.14814884 -4.13941748 5.57400704 -4 3 C-4.66 2.67 -5.32 2.34 -6 2 C-1.125 0 -1.125 0 0 0 Z " fill="#9BF2EB" transform="translate(37,25)"/>
<path d="M0 0 C1.32 0.33 2.64 0.66 4 1 C4 8.92 4 16.84 4 25 C2.68 25.33 1.36 25.66 0 26 C0 17.42 0 8.84 0 0 Z " fill="#6FEEE2" transform="translate(42,26)"/>
<path d="M0 0 C1.67542976 0.28604898 3.34385343 0.61781233 5 1 C5 3.31 5 5.62 5 8 C3.34385343 8.38218767 1.67542976 8.71395102 0 9 C-1 8 -1 8 -1.125 4.5 C-1 1 -1 1 0 0 Z " fill="#87F0E7" transform="translate(37,57)"/>
<path d="M0 0 C4.75 0.75 4.75 0.75 7 3 C6.625 5.625 6.625 5.625 6 8 C1.25 7.25 1.25 7.25 -1 5 C-0.625 2.375 -0.625 2.375 0 0 Z " fill="#66EDDF" transform="translate(52,51)"/>
<path d="M0 0 C2.625 0.375 2.625 0.375 5 1 C4.25 5.75 4.25 5.75 2 8 C-0.625 7.625 -0.625 7.625 -3 7 C-2.25 2.25 -2.25 2.25 0 0 Z " fill="#69EDE0" transform="translate(22,51)"/>
<path d="M0 0 C1.134375 0.020625 2.26875 0.04125 3.4375 0.0625 C3.81968767 1.71864657 4.15145102 3.38707024 4.4375 5.0625 C3.4375 6.0625 3.4375 6.0625 -0.125 6.125 C-1.259375 6.104375 -2.39375 6.08375 -3.5625 6.0625 C-3.94468767 4.40635343 -4.27645102 2.73792976 -4.5625 1.0625 C-3.5625 0.0625 -3.5625 0.0625 0 0 Z " fill="#6AEDE0" transform="translate(61.5625,35.9375)"/>
<path d="M0 0 C1.134375 0.020625 2.26875 0.04125 3.4375 0.0625 C3.81968767 1.71864657 4.15145102 3.38707024 4.4375 5.0625 C3.4375 6.0625 3.4375 6.0625 -0.125 6.125 C-1.259375 6.104375 -2.39375 6.08375 -3.5625 6.0625 C-3.94468767 4.40635343 -4.27645102 2.73792976 -4.5625 1.0625 C-3.5625 0.0625 -3.5625 0.0625 0 0 Z " fill="#A5F3ED" transform="translate(16.5625,35.9375)"/>
<path d="M0 0 C2.625 0.375 2.625 0.375 5 1 C4.25 5.75 4.25 5.75 2 8 C-0.625 7.625 -0.625 7.625 -3 7 C-2.25 2.25 -2.25 2.25 0 0 Z " fill="#66EDDF" transform="translate(54,19)"/>
<path d="M0 0 C4.75 0.75 4.75 0.75 7 3 C6.625 5.625 6.625 5.625 6 8 C1.25 7.25 1.25 7.25 -1 5 C-0.625 2.375 -0.625 2.375 0 0 Z " fill="#69EDE1" transform="translate(20,19)"/>
<path d="M0 0 C1.67542976 0.28604898 3.34385343 0.61781233 5 1 C5 3.31 5 5.62 5 8 C3.34385343 8.38218767 1.67542976 8.71395102 0 9 C-1 8 -1 8 -1.125 4.5 C-1 1 -1 1 0 0 Z " fill="#87F1E7" transform="translate(37,12)"/>
<path d="M0 0 C0.66 0 1.32 0 2 0 C2 3.63 2 7.26 2 11 C1.01 11.495 1.01 11.495 0 12 C-0.19573608 10.56359829 -0.38127816 9.12580496 -0.5625 7.6875 C-0.66691406 6.88699219 -0.77132813 6.08648437 -0.87890625 5.26171875 C-1 3 -1 3 0 0 Z " fill="#C4F6F4" transform="translate(26,33)"/>
<path d="M0 0 C0.99 0 1.98 0 3 0 C3 2.64 3 5.28 3 8 C1.68 7.01 0.36 6.02 -1 5 C-0.67 3.35 -0.34 1.7 0 0 Z " fill="#A5F3ED" transform="translate(52,51)"/>
<path d="M0 0 C0.33 0 0.66 0 1 0 C1 2.64 1 5.28 1 8 C-0.32 7.67 -1.64 7.34 -3 7 C-2.25 2.25 -2.25 2.25 0 0 Z " fill="#A8F4EE" transform="translate(22,51)"/>
<path d="M0 0 C0.33 0 0.66 0 1 0 C1 2.64 1 5.28 1 8 C-0.32 7.67 -1.64 7.34 -3 7 C-2.25 2.25 -2.25 2.25 0 0 Z " fill="#A6F3ED" transform="translate(54,19)"/>
<path d="M0 0 C0.99 0 1.98 0 3 0 C3 2.64 3 5.28 3 8 C1.68 7.01 0.36 6.02 -1 5 C-0.67 3.35 -0.34 1.7 0 0 Z " fill="#A7F3ED" transform="translate(20,19)"/>
<path d="M0 0 C0.99 0 1.98 0 3 0 C3 1.98 3 3.96 3 6 C1.68 5.67 0.36 5.34 -1 5 C-0.67 3.35 -0.34 1.7 0 0 Z " fill="#AEF4F0" transform="translate(58,36)"/>
<path d="M0 0 C1.32 0.33 2.64 0.66 4 1 C3.67 2.65 3.34 4.3 3 6 C2.01 6 1.02 6 0 6 C0 4.02 0 2.04 0 0 Z " fill="#60EDDE" transform="translate(17,36)"/>
</svg>
